<svg xmlns="http://www.w3.org/2000/svg" viewBox="0 0 512 512" width="512" height="512">
  <defs>
    <linearGradient id="bg" x1="0%" y1="0%" x2="100%" y2="100%">
      <stop offset="0%" stop-color="#E8F5E9"/>
      <stop offset="100%" stop-color="#C8E6C9"/>
    </linearGradient>
  </defs>
  <rect width="512" height="512" rx="100" fill="url(#bg)"/>
  <g transform="translate(256,256)">
    <!-- Calendário -->
    <rect x="-72" y="-60" width="144" height="120" rx="18" fill="white" stroke="#2E7D32" stroke-width="5"/>
    <rect x="-72" y="-60" width="144" height="42" rx="18" fill="#2E7D32"/>
    <rect x="-54" y="-46" width="10" height="22" rx="5" fill="white" opacity="0.9"/>
    <rect x="-16" y="-46" width="10" height="22" rx="5" fill="white" opacity="0.9"/>
    <circle cx="-34" cy="-28" r="5" fill="white" opacity="0.7"/>
    <circle cx="4" cy="-28" r="5" fill="white" opacity="0.7"/>
    <!-- Check verde -->
    <path d="M-40 8 L-18 30 L44 -26" stroke="#2E7D32" stroke-width="14" stroke-linecap="round" stroke-linejoin="round" fill="none"/>
    <!-- Linhas de dias -->
    <line x1="-54" y1="8" x2="28" y2="8" stroke="#E0E0E0" stroke-width="4" stroke-linecap="round"/>
    <line x1="-54" y1="26" x2="46" y2="26" stroke="#E0E0E0" stroke-width="4" stroke-linecap="round"/>
    <!-- Etiqueta azul inclinada -->
    <g transform="translate(108,-44) rotate(18)">
      <rect x="-36" y="-20" width="72" height="44" rx="10" fill="#1565C0"/>
      <circle cx="-22" cy="-10" r="6" fill="#1565C0" stroke="white" stroke-width="2"/>
      <rect x="-26" y="2" width="52" height="8" rx="4" fill="white" opacity="0.3"/>
      <rect x="-26" y="16" width="36" height="6" rx="3" fill="white" opacity="0.2"/>
    </g>
  </g>
</svg>
